<mxfile host="app.diagrams.net" agent="Mozilla/5.0 (X11; Ubuntu; Linux x86_64; rv:133.0) Gecko/20100101 Firefox/133.0" version="25.0.3">
  <diagram name="Page-1" id="4rlV6-eBQoF9-eMR38gG">
    <mxGraphModel dx="1364" dy="764" grid="1" gridSize="10" guides="1" tooltips="1" connect="1" arrows="1" fold="1" page="1" pageScale="1" pageWidth="827" pageHeight="1169" math="0" shadow="0">
      <root>
        <mxCell id="0" />
        <mxCell id="1" parent="0" />
        <mxCell id="3" value="Standalone MySQL/MongoDB Server" style="whiteSpace=wrap;strokeWidth=2;rounded=1;glass=1;fillColor=#008a00;strokeColor=#005700;fontColor=#ffffff;" parent="1" vertex="1">
          <mxGeometry x="302" y="290" width="223" height="50" as="geometry" />
        </mxCell>
        <mxCell id="qRR1_Z2wBc2l9ip9wchm-22" style="edgeStyle=orthogonalEdgeStyle;rounded=0;orthogonalLoop=1;jettySize=auto;html=1;exitX=0.5;exitY=0;exitDx=0;exitDy=0;entryX=0.5;entryY=1;entryDx=0;entryDy=0;startArrow=classic;startFill=1;dashed=1;" edge="1" parent="1" source="qRR1_Z2wBc2l9ip9wchm-21" target="3">
          <mxGeometry relative="1" as="geometry" />
        </mxCell>
        <mxCell id="qRR1_Z2wBc2l9ip9wchm-23" value="Query /Response" style="edgeLabel;html=1;align=center;verticalAlign=middle;resizable=0;points=[];" vertex="1" connectable="0" parent="qRR1_Z2wBc2l9ip9wchm-22">
          <mxGeometry x="-0.0071" y="-4" relative="1" as="geometry">
            <mxPoint x="-57" y="-10" as="offset" />
          </mxGeometry>
        </mxCell>
        <mxCell id="qRR1_Z2wBc2l9ip9wchm-21" value="Client" style="whiteSpace=wrap;strokeWidth=2;rounded=1;glass=1;fillColor=#fa6800;strokeColor=#C73500;fontColor=#000000;" vertex="1" parent="1">
          <mxGeometry x="302" y="440" width="223" height="50" as="geometry" />
        </mxCell>
      </root>
    </mxGraphModel>
  </diagram>
</mxfile>
